<?xml version="1.0" encoding="utf-8"?>
<!-- Generator: Adobe Illustrator 24.3.0, SVG Export Plug-In . SVG Version: 6.00 Build 0)  -->
<svg version="1.1" id="Layer_1" xmlns="http://www.w3.org/2000/svg" xmlns:xlink="http://www.w3.org/1999/xlink" x="0px" y="0px"
	 viewBox="0 0 341 105.15" style="enable-background:new 0 0 341 105.15;" xml:space="preserve">
<style type="text/css">
	.st0{fill:#FF681D;}
	.st1{fill:#FFE000;}
	.st2{fill:#006EC9;}
	.st3{fill:#034877;}
	.st4{fill:#06BFFF;}
</style>
<g>
	<path class="st0" d="M72.29,34.64c0.23-6.03-1.91-8.45-4.38-10.35c-1.49-1.15-3.16-1.45-4.81-1.7c-0.97-0.15-1.94-0.2-2.92-0.21
		l-11.81-0.15l-0.02,12.4v2.84h21.1c1.57,0,2.84-1.27,2.85-2.84l0,0L72.29,34.64z"/>
</g>
<g>
	<path class="st1" d="M36.37,26.77c0,0,0.96,8.32,11.99,7.87l0.01-12.43c-4.94,0.13-8.23,0.1-12.02,4.4L36.37,26.77z"/>
</g>
<g>
	<path class="st2" d="M35.4,39.27L35.4,39.27c1.66-0.65,3.55-1.28,5.55-1.59c2.44-0.37,4.94-0.33,7.42-0.3l-0.07,3.58
		c-1.09,29.57-10.13,27.55-21.25,27.69c-1.6,0.02-3.21-0.02-4.81-0.17l0,0l-0.02-2.36C22.3,51.86,26.26,42.92,35.4,39.27z"/>
</g>
<path class="st3" d="M43.43,63.59c-3.91,5.62-9.63,4.87-16.23,4.95c-1.6,0.02-3.21-0.02-4.81-0.17l-0.16-0.01
	c-0.02,2.23,0.12,5.03,0.23,7.24l0.15,2.62c1.84-0.4,3.66-0.94,5.41-1.62c6.42-2.49,9.78-4.14,14.42-11.35L43.43,63.59z"/>
<path class="st4" d="M59.05,37.47c0.9,11.07-5.59,21.92-16.82,28.11c0.07-0.11,0.14-0.21,0.21-0.32l1-1.67h0.01
	c2.67-3.85,4.41-10.65,4.85-22.64l0.07-3.57L59.05,37.47z"/>
<g>
	<path class="st1" d="M35.4,39.27L35.4,39.27c0,0-0.53-0.51-1.11-2.14c-0.53-1.48-0.61-3.35-0.56-4.64
		c0.09-2.25,1.17-4.25,2.61-5.89l0.02,0.16c0,0,0.97,8.34,11.99,7.88v2.75c-2.57-0.02-4.97-0.08-7.41,0.3
		C38.95,37.99,37.05,38.62,35.4,39.27z"/>
</g>
<g>
	<g>
		<path class="st3" d="M232.3,46.31v5.05h-14.59v-5.05H232.3z M221.02,40.5h6.72v22.59c0,0.62,0.09,1.1,0.29,1.44
			c0.19,0.34,0.46,0.58,0.8,0.72c0.34,0.13,0.74,0.2,1.19,0.2c0.32,0,0.63-0.03,0.95-0.09c0.32-0.06,0.56-0.11,0.72-0.13l1.06,5
			c-0.34,0.11-0.81,0.23-1.42,0.37s-1.35,0.23-2.22,0.26c-1.62,0.06-3.04-0.15-4.25-0.65s-2.16-1.26-2.83-2.3s-1-2.36-0.99-3.94
			L221.02,40.5L221.02,40.5z"/>
		<path class="st3" d="M247.46,71.01c-2.49,0-4.64-0.51-6.43-1.52s-3.17-2.46-4.14-4.32c-0.97-1.87-1.45-4.08-1.45-6.63
			c0-2.49,0.48-4.68,1.45-6.56s2.33-3.35,4.1-4.4c1.76-1.05,3.83-1.58,6.21-1.58c1.6,0,3.09,0.26,4.47,0.76
			c1.38,0.51,2.59,1.28,3.63,2.29c1.03,1.02,1.84,2.3,2.42,3.84c0.58,1.54,0.87,3.34,0.87,5.4v1.84h-20.46v-4.17h14.14
			c0-0.97-0.21-1.83-0.63-2.57s-1-1.34-1.74-1.76c-0.74-0.42-1.6-0.64-2.58-0.64c-1.02,0-1.93,0.23-2.71,0.7
			c-0.78,0.47-1.39,1.1-1.84,1.88c-0.44,0.78-0.67,1.66-0.68,2.61v3.96c0,1.2,0.22,2.23,0.67,3.11s1.08,1.55,1.9,2.02
			c0.82,0.47,1.79,0.71,2.92,0.71c0.75,0,1.43-0.11,2.05-0.32c0.62-0.21,1.15-0.53,1.59-0.95s0.78-0.94,1.01-1.55l6.21,0.41
			c-0.32,1.49-0.96,2.79-1.93,3.9s-2.22,1.97-3.76,2.58C251.22,70.7,249.46,71.01,247.46,71.01z"/>
		<path class="st3" d="M273.91,71.01c-2.48,0-4.61-0.53-6.39-1.59c-1.79-1.06-3.15-2.53-4.1-4.41s-1.43-4.05-1.43-6.5
			c0-2.48,0.48-4.66,1.44-6.54s2.33-3.34,4.11-4.4c1.78-1.06,3.89-1.59,6.34-1.59c2.11,0,3.97,0.39,5.55,1.15
			c1.59,0.77,2.85,1.84,3.77,3.23c0.93,1.39,1.44,3.02,1.53,4.89h-6.34c-0.18-1.21-0.65-2.18-1.41-2.93
			c-0.76-0.74-1.76-1.11-2.99-1.11c-1.04,0-1.95,0.28-2.72,0.85c-0.78,0.56-1.38,1.38-1.81,2.46c-0.43,1.07-0.65,2.37-0.65,3.9
			c0,1.55,0.21,2.86,0.64,3.94c0.43,1.09,1.03,1.91,1.81,2.48s1.69,0.85,2.73,0.85c0.77,0,1.46-0.16,2.08-0.47
			c0.61-0.32,1.13-0.78,1.53-1.38s0.67-1.34,0.8-2.19h6.34c-0.11,1.85-0.61,3.48-1.51,4.88c-0.9,1.41-2.14,2.5-3.72,3.29
			C277.94,70.62,276.07,71.01,273.91,71.01z"/>
		<path class="st3" d="M295.78,56.53v14.01h-6.72V38.23h6.53v12.35h0.29c0.55-1.43,1.43-2.56,2.65-3.37
			c1.22-0.82,2.75-1.23,4.59-1.23c1.68,0,3.15,0.37,4.41,1.1c1.25,0.73,2.23,1.78,2.93,3.14c0.7,1.36,1.04,2.99,1.03,4.88v15.43
			h-6.72V56.31c0.01-1.49-0.37-2.65-1.13-3.49c-0.76-0.83-1.83-1.25-3.2-1.25c-0.92,0-1.72,0.19-2.42,0.58s-1.25,0.96-1.64,1.7
			C295.99,54.6,295.79,55.49,295.78,56.53z"/>
	</g>
	<g>
		<path class="st2" d="M106.05,55.69c0.15-0.22,0.34-0.36,0.58-0.41c0.24-0.05,0.43-0.03,0.58,0.08s0.23,0.3,0.25,0.55
			c0.02,0.26-0.08,0.61-0.3,1.05c-0.74,1.4-1.7,2.91-2.89,4.52c-1.2,1.62-2.46,3.13-3.78,4.55c-1.32,1.42-2.61,2.58-3.86,3.5
			s-2.3,1.38-3.14,1.38c-1.21,0-2.22-0.24-3.03-0.72s-1.44-1.07-1.9-1.77s-0.78-1.46-0.96-2.29c-0.19-0.83-0.24-1.59-0.16-2.29
			c0.04-0.59,0.16-1.65,0.39-3.17c0.22-1.52,0.51-3.29,0.88-5.3c0.37-2,0.78-4.15,1.24-6.45s0.95-4.52,1.46-6.64
			c-0.62,0.08-1.25,0.15-1.87,0.22c-0.62,0.08-1.2,0.11-1.71,0.11c-1.18,0-2.29-0.14-3.34-0.41c-1.05-0.27-1.83-0.54-2.35-0.8
			c-0.29-0.15-0.42-0.36-0.39-0.64c0.04-0.27,0.15-0.55,0.33-0.83c0.19-0.27,0.41-0.51,0.69-0.72c0.27-0.2,0.53-0.3,0.75-0.3
			c0.7,0.08,1.45,0.14,2.26,0.19c0.81,0.05,1.69,0.06,2.65,0.03c0.7-0.04,1.37-0.09,2.01-0.16c0.64-0.08,1.28-0.16,1.9-0.27
			c0.48-1.77,0.95-3.3,1.41-4.61c0.46-1.31,0.88-2.22,1.24-2.73c0.11-0.18,0.36-0.34,0.75-0.47s0.8-0.22,1.24-0.27
			c0.44-0.05,0.86-0.05,1.27,0c0.4,0.05,0.7,0.19,0.88,0.41c0.19,0.3,0.26,1.05,0.22,2.26s-0.24,2.76-0.61,4.63
			c1.55,0,2.92,0.08,4.11,0.25c1.2,0.16,2.22,0.35,3.06,0.55c0.85,0.2,1.53,0.4,2.04,0.61c0.51,0.2,0.9,0.34,1.16,0.41
			c0.26,0.08,0.4,0.26,0.41,0.55c0.02,0.3-0.04,0.6-0.16,0.91c-0.13,0.32-0.34,0.58-0.64,0.8s-0.62,0.3-0.99,0.22
			c-0.37-0.03-0.78-0.11-1.24-0.22s-1.01-0.2-1.66-0.27c-0.64-0.08-1.41-0.15-2.29-0.22c-0.88-0.08-1.91-0.11-3.09-0.11
			c-0.22,0-0.47,0.01-0.75,0.03c-0.27,0.02-0.56,0.03-0.86,0.03c-0.15,0.59-0.29,1.17-0.41,1.74s-0.3,1.17-0.53,1.79
			c-0.48,1.47-1.03,3.07-1.66,4.8c-0.55,1.51-1.21,3.24-1.98,5.19c-0.77,1.95-1.64,4.03-2.59,6.23c-0.22,1.58-0.19,2.79,0.08,3.61
			c0.27,0.83,0.61,1.42,1.02,1.79c0.48,0.4,1.07,0.62,1.77,0.66c0.55,0.08,1.22-0.12,2.01-0.58s1.61-1.07,2.46-1.85
			c0.85-0.77,1.7-1.62,2.57-2.54c0.86-0.92,1.66-1.82,2.4-2.7s1.38-1.68,1.93-2.4C105.44,56.49,105.82,55.98,106.05,55.69z"/>
		<path class="st2" d="M119.07,60.88c-0.37,1.4-0.86,2.7-1.49,3.91c-0.62,1.21-1.37,2.26-2.23,3.14s-1.84,1.58-2.92,2.07
			c-1.09,0.5-2.27,0.75-3.56,0.75c-1.51,0-2.7-0.32-3.56-0.97c-0.86-0.64-1.51-1.44-1.93-2.4c-0.43-0.96-0.68-2.01-0.77-3.14
			c-0.09-1.14-0.14-2.21-0.14-3.2c0-0.7,0.08-1.47,0.25-2.32c0.16-0.85,0.4-1.71,0.69-2.59s0.67-1.77,1.13-2.65s1-1.69,1.63-2.43
			c0.22-0.62,0.56-1.18,1.02-1.66s0.99-0.88,1.6-1.18c0.61-0.31,1.26-0.55,1.96-0.72c0.7-0.16,1.38-0.25,2.04-0.25
			c0.11,0,0.21,0.02,0.3,0.05s0.19,0.08,0.3,0.11c0.48,0.04,1.07,0.22,1.79,0.55s1.42,0.83,2.09,1.49c0.68,0.66,1.26,1.5,1.74,2.51
			c0.48,1.01,0.72,2.23,0.72,3.67c0,0.3-0.02,0.65-0.05,1.07c-0.03,0.43-0.08,0.78-0.11,1.07c0.85-0.33,1.73-0.74,2.65-1.21
			c0.92-0.48,1.81-0.99,2.68-1.52c0.86-0.53,1.66-1.07,2.4-1.63c0.74-0.55,1.32-1.05,1.77-1.49c0.37-0.33,0.68-0.51,0.94-0.55
			c0.26-0.04,0.44,0.04,0.55,0.22c0.11,0.19,0.13,0.44,0.05,0.77c-0.08,0.33-0.27,0.7-0.61,1.1c-0.19,0.22-0.65,0.66-1.41,1.32
			c-0.75,0.66-1.65,1.38-2.68,2.15c-1.03,0.77-2.15,1.53-3.37,2.26C121.32,59.96,120.17,60.51,119.07,60.88z M106.21,62.2
			c0,0.66,0.04,1.32,0.11,1.96s0.22,1.21,0.44,1.71s0.51,0.9,0.88,1.21c0.37,0.32,0.85,0.47,1.44,0.47c0.66,0,1.27-0.16,1.82-0.47
			s1.05-0.72,1.49-1.21c0.44-0.5,0.83-1.07,1.18-1.71s0.65-1.31,0.91-2.01c-0.26,0.04-0.51,0.06-0.75,0.08s-0.51,0.03-0.8,0.03
			c-1.4,0-2.6-0.41-3.61-1.24c-1.01-0.83-1.79-1.88-2.35-3.17c-0.22,0.77-0.4,1.53-0.55,2.26C106.28,60.84,106.21,61.54,106.21,62.2
			z M109.74,52.49c-0.11,0.33-0.16,0.68-0.16,1.05c0,0.59,0.04,1.21,0.11,1.85c0.08,0.64,0.26,1.23,0.55,1.74
			c0.29,0.51,0.76,0.95,1.41,1.3c0.64,0.35,1.53,0.53,2.68,0.53c0.18,0,0.37-0.01,0.55-0.03s0.37-0.05,0.55-0.08
			c0.11-0.48,0.21-0.91,0.3-1.3s0.14-0.72,0.14-1.02c0.08-0.7,0.08-1.42,0-2.15s-0.21-1.41-0.41-2.01c-0.2-0.61-0.46-1.1-0.77-1.49
			c-0.33-0.39-0.71-0.58-1.15-0.58c-0.7,0-1.37,0.19-2.01,0.58C110.89,51.25,110.29,51.8,109.74,52.49z"/>
		<path class="st2" d="M131.81,70.53c-1.4,0-2.54-0.22-3.42-0.66c-0.88-0.44-1.57-0.99-2.07-1.63s-0.85-1.34-1.05-2.09
			c-0.2-0.75-0.3-1.44-0.3-2.07c0-1.1,0.09-2.27,0.27-3.5s0.4-2.37,0.66-3.42c0.26-1.05,0.49-1.94,0.69-2.68
			c0.2-0.74,0.34-1.2,0.41-1.38c0.33-1.07,0.76-2,1.3-2.78c0.53-0.79,1.28-1.33,2.23-1.63c0.37-0.08,0.75-0.15,1.16-0.22
			c0.33-0.04,0.67-0.05,1.02-0.05s0.67,0.05,0.96,0.16c-0.99,2.54-1.77,4.66-2.35,6.34c-0.57,1.69-1,3.07-1.3,4.14
			c-0.33,1.21-0.53,2.19-0.61,2.92c-0.19,1.66-0.04,2.91,0.44,3.75c0.48,0.85,1.45,1.27,2.92,1.27c0.96,0,1.87-0.36,2.76-1.07
			c0.88-0.72,1.69-1.65,2.43-2.78c-0.11-0.59-0.16-1.2-0.16-1.82c0-1.18,0.1-2.33,0.3-3.45c0.2-1.12,0.44-2.17,0.72-3.14
			s0.57-1.85,0.88-2.62c0.31-0.77,0.58-1.38,0.8-1.82c0.4-0.88,0.77-1.42,1.1-1.63s0.86-0.32,1.6-0.36
			c0.29-0.04,0.54-0.05,0.75-0.03s0.38,0.05,0.53,0.08c0.44,0.11,0.66,0.33,0.66,0.66c0,0.59-0.04,1.47-0.11,2.65
			c-0.08,1.18-0.3,2.39-0.66,3.64c-0.26,1.03-0.51,1.9-0.75,2.62s-0.47,1.32-0.69,1.82s-0.44,0.9-0.66,1.21
			c-0.22,0.32-0.43,0.6-0.61,0.86c0.08,1.1,0.16,1.98,0.27,2.65c0.11,0.66,0.25,1.17,0.41,1.52s0.37,0.59,0.61,0.72
			c0.24,0.13,0.51,0.19,0.8,0.19c0.51,0,1.12-0.25,1.82-0.75c0.7-0.5,1.42-1.12,2.18-1.88c0.75-0.75,1.51-1.58,2.26-2.48
			s1.44-1.76,2.07-2.57c0.62-0.81,1.16-1.52,1.6-2.12c0.44-0.61,0.72-0.99,0.83-1.13c0.26-0.33,0.51-0.53,0.75-0.61
			s0.43-0.05,0.58,0.08c0.15,0.13,0.23,0.33,0.25,0.61c0.02,0.27-0.06,0.58-0.25,0.91c-0.74,1.4-1.65,2.88-2.73,4.44
			c-1.09,1.56-2.25,3-3.48,4.33c-1.23,1.32-2.47,2.43-3.72,3.31s-2.43,1.32-3.53,1.32c-0.99,0-1.77-0.34-2.35-1.02
			c-0.57-0.68-1.06-1.66-1.46-2.95c-0.85,1.32-1.84,2.35-2.98,3.06C134.47,70.17,133.2,70.53,131.81,70.53z"/>
		<path class="st2" d="M160.83,67.77c1.14,0,2.4-0.45,3.78-1.35s2.72-1.96,4.03-3.17s2.5-2.46,3.59-3.72s1.9-2.29,2.46-3.06
			c0.33-0.48,0.64-0.76,0.94-0.86c0.29-0.09,0.51-0.05,0.66,0.14c0.15,0.19,0.2,0.47,0.17,0.86c-0.04,0.39-0.2,0.82-0.5,1.3
			c-0.26,0.44-0.69,1.07-1.3,1.9s-1.32,1.73-2.15,2.7s-1.77,1.97-2.81,2.98c-1.05,1.01-2.14,1.93-3.28,2.76s-2.32,1.51-3.53,2.04
			c-1.21,0.53-2.41,0.8-3.59,0.8c-1.62,0-2.97-0.3-4.05-0.91c-1.09-0.61-1.95-1.39-2.59-2.35s-1.1-2.01-1.35-3.17
			c-0.26-1.16-0.39-2.3-0.39-3.45c0-1.14,0.26-2.56,0.77-4.25c0.51-1.69,1.28-3.32,2.29-4.88s2.29-2.91,3.83-4.03
			c1.55-1.12,3.37-1.68,5.46-1.68c1.18,0,2.18,0.4,3,1.21c0.83,0.81,1.23,1.91,1.18,3.31c0,0.66-0.11,1.31-0.33,1.96
			c-0.22,0.64-0.51,1.21-0.88,1.71c-0.37,0.5-0.8,0.89-1.3,1.18c-0.5,0.3-1.04,0.44-1.63,0.44c-0.48,0-0.83-0.18-1.07-0.53
			s-0.39-0.75-0.44-1.21s-0.05-0.91,0-1.35s0.12-0.74,0.19-0.88c0.18-0.26,0.39-0.44,0.61-0.55s0.48-0.24,0.77-0.39
			c0.22-0.11,0.4-0.27,0.53-0.5c0.13-0.22,0.19-0.46,0.19-0.72s-0.08-0.48-0.22-0.66s-0.39-0.27-0.72-0.27s-0.93,0.27-1.79,0.8
			c-0.86,0.53-1.74,1.32-2.65,2.37c-0.9,1.05-1.7,2.36-2.4,3.94s-1.07,3.42-1.1,5.52c-0.04,1.21,0.13,2.21,0.5,2.98
			c0.37,0.77,0.83,1.38,1.38,1.82s1.16,0.75,1.82,0.94C159.55,67.68,160.2,67.77,160.83,67.77z"/>
		<path class="st2" d="M200.26,58.67c-0.51,0.74-1.18,1.65-1.98,2.73c-0.81,1.09-1.65,2.17-2.51,3.26
			c-0.86,1.09-1.71,2.08-2.54,2.98s-1.52,1.53-2.07,1.9c-0.37,0.22-0.79,0.4-1.27,0.55c-0.48,0.15-0.97,0.24-1.46,0.27
			s-0.96,0.01-1.41-0.08c-0.44-0.09-0.83-0.25-1.16-0.47c-0.33-0.26-0.61-0.62-0.83-1.1c-0.19-0.4-0.36-0.94-0.53-1.6
			c-0.16-0.66-0.23-1.49-0.19-2.48c-0.88,1.47-1.86,2.6-2.92,3.39c-1.07,0.79-2.08,1.37-3.03,1.74c-1.1,0.4-2.21,0.64-3.31,0.72
			c-0.51,0-1.07-0.18-1.66-0.53s-1.09-0.9-1.49-1.66c-0.4-0.75-0.66-1.73-0.77-2.92c-0.11-1.2,0.04-2.62,0.44-4.28
			c0.51-2.24,1.33-4.28,2.46-6.13c1.12-1.84,2.35-3.41,3.67-4.71c1.32-1.31,2.63-2.29,3.91-2.95c1.29-0.66,2.35-0.96,3.2-0.88
			c0.99,0.19,1.8,0.48,2.43,0.88c0.51,0.37,0.86,0.91,1.02,1.63c0.16,0.72-0.14,1.66-0.91,2.84c0.51-0.11,0.95-0.18,1.3-0.22
			s0.62-0.05,0.8-0.05c0.22,0,0.37,0.02,0.44,0.05c0.03,0.08,0.05,0.23,0.05,0.47s-0.05,0.67-0.16,1.3
			c-0.11,0.62-0.27,1.47-0.5,2.54s-0.51,2.44-0.88,4.14c-0.08,0.33-0.14,0.64-0.19,0.91c-0.05,0.27-0.11,0.55-0.16,0.83
			s-0.12,0.6-0.19,0.96c-0.08,0.37-0.16,0.83-0.27,1.38c-0.04,0.33-0.05,0.69-0.03,1.07c0.02,0.39,0.08,0.75,0.19,1.07
			c0.11,0.33,0.29,0.6,0.53,0.8c0.24,0.2,0.58,0.3,1.02,0.3c0.37,0,0.85-0.23,1.44-0.69s1.21-1.05,1.87-1.77s1.35-1.51,2.07-2.37
			s1.39-1.7,2.01-2.51c0.62-0.81,1.18-1.53,1.68-2.15s0.86-1.09,1.07-1.38c0.29-0.33,0.59-0.53,0.88-0.58
			c0.29-0.05,0.51,0.03,0.66,0.25c0.15,0.22,0.18,0.55,0.08,0.99C200.98,57.56,200.71,58.08,200.26,58.67z M184.1,61.1
			c0.18-0.74,0.4-1.6,0.66-2.59c0.26-0.99,0.48-1.95,0.66-2.87c0.18-0.92,0.32-1.68,0.41-2.29s0.06-0.89-0.08-0.86
			c-0.19,0.03-0.39,0.09-0.61,0.16c-0.19,0.08-0.43,0.13-0.72,0.16s-0.59,0.09-0.88,0.16c0.29-0.59,0.47-1.07,0.53-1.46
			c0.05-0.39,0.06-0.69,0.03-0.91c-0.04-0.26-0.11-0.46-0.22-0.61c-0.4-0.33-1.11-0.06-2.12,0.8s-2.18,2.46-3.5,4.77
			c-0.55,0.96-0.99,1.98-1.32,3.06c-0.33,1.09-0.56,2.11-0.69,3.06c-0.13,0.96-0.16,1.79-0.08,2.51s0.22,1.18,0.44,1.41
			c0.4,0.4,0.86,0.6,1.38,0.58c0.51-0.02,1.04-0.16,1.58-0.44c0.53-0.27,1.07-0.64,1.6-1.07c0.53-0.44,1.01-0.9,1.44-1.38
			c0.42-0.48,0.77-0.92,1.05-1.32C183.91,61.58,184.06,61.28,184.1,61.1z"/>
		<path class="st2" d="M212.95,71.03c-0.85,0-1.58-0.16-2.18-0.47c-0.61-0.32-1.1-0.73-1.46-1.24c-0.37-0.51-0.61-1.11-0.72-1.79
			s-0.08-1.41,0.11-2.18c0.11-0.51,0.29-1.2,0.55-2.07c0.26-0.86,0.53-1.8,0.8-2.81s0.53-2.02,0.77-3.03s0.4-1.93,0.47-2.76
			c0.08-0.83,0.04-1.51-0.11-2.04s-0.46-0.8-0.94-0.8c-0.59,0-1.2,0.19-1.82,0.58c-0.62,0.39-1.26,0.91-1.9,1.58
			c-0.64,0.66-1.29,1.42-1.93,2.29c-0.64,0.86-1.28,1.76-1.9,2.68c-0.33,1.25-0.61,2.35-0.83,3.28c-0.22,0.94-0.41,1.79-0.58,2.54
			s-0.32,1.42-0.47,1.98c-0.15,0.57-0.27,1.11-0.39,1.63c-0.11,0.37-0.44,0.73-0.99,1.07s-1.14,0.64-1.77,0.86
			c-0.62,0.22-1.17,0.33-1.63,0.33s-0.65-0.16-0.58-0.5c0.04-0.22,0.16-0.72,0.36-1.49s0.44-1.68,0.72-2.73
			c0.27-1.05,0.56-2.16,0.86-3.34c0.29-1.18,0.57-2.3,0.83-3.37c0.18-0.85,0.39-1.79,0.61-2.81c0.18-0.88,0.41-1.91,0.69-3.09
			s0.6-2.46,0.97-3.86c0.26-0.22,0.53-0.4,0.8-0.53s0.56-0.23,0.86-0.3c0.29-0.11,0.61-0.18,0.94-0.22c0.29,0,0.59,0.02,0.88,0.05
			c0.26,0.04,0.53,0.1,0.8,0.19s0.53,0.23,0.75,0.41c-0.11,0.26-0.24,0.62-0.39,1.07c-0.15,0.46-0.29,0.95-0.44,1.46
			c-0.15,0.59-0.33,1.2-0.55,1.82c0.48-0.66,1.02-1.33,1.63-2.01s1.27-1.3,1.98-1.85s1.48-1,2.29-1.35s1.63-0.53,2.49-0.53
			c0.7,0,1.32,0.2,1.87,0.61c0.55,0.4,0.99,0.96,1.3,1.68s0.5,1.57,0.55,2.57c0.06,0.99-0.08,2.08-0.41,3.26l-0.61,2.43
			c-0.19,0.77-0.41,1.68-0.69,2.73c-0.27,1.05-0.62,2.2-1.02,3.45c-0.22,0.81-0.3,1.51-0.25,2.09c0.06,0.59,0.41,0.88,1.07,0.88
			s1.5-0.4,2.51-1.21s2.03-1.79,3.06-2.92c1.03-1.14,2.01-2.31,2.92-3.5c0.92-1.2,1.62-2.16,2.09-2.89
			c0.33-0.48,0.64-0.79,0.94-0.94c0.29-0.15,0.53-0.16,0.69-0.05s0.25,0.36,0.25,0.75s-0.15,0.88-0.44,1.46
			c-0.26,0.51-0.65,1.2-1.18,2.04c-0.53,0.85-1.17,1.74-1.9,2.7c-0.74,0.96-1.53,1.92-2.37,2.89c-0.85,0.97-1.73,1.86-2.65,2.65
			s-1.83,1.44-2.73,1.93C214.62,70.78,213.76,71.03,212.95,71.03z"/>
	</g>
</g>
</svg>
